<svg width="105" height="21" viewBox="0 0 105 21" fill="none" xmlns="http://www.w3.org/2000/svg">
<path d="M10.6744 6.81641C10.5915 6.04107 10.2423 5.43738 9.62678 5.00533C9.01716 4.57327 8.22408 4.35724 7.24751 4.35724C6.56096 4.35724 5.97206 4.46082 5.48082 4.66797C4.98958 4.87512 4.61375 5.15625 4.35334 5.51136C4.09292 5.86648 3.95975 6.2719 3.95384 6.72763C3.95384 7.10642 4.03965 7.4349 4.21129 7.71307C4.38885 7.99124 4.62855 8.22798 4.9304 8.4233C5.23224 8.61269 5.56664 8.77249 5.93359 8.9027C6.30054 9.03291 6.67045 9.1424 7.04332 9.23118L8.74787 9.65731C9.43442 9.81712 10.0943 10.0331 10.7276 10.3054C11.3668 10.5777 11.938 10.9209 12.4411 11.3352C12.95 11.7495 13.3525 12.2496 13.6484 12.8356C13.9444 13.4215 14.0923 14.1081 14.0923 14.8952C14.0923 15.9606 13.8201 16.8987 13.2756 17.7095C12.7311 18.5144 11.9439 19.1448 10.9141 19.6005C9.89015 20.0503 8.65021 20.2752 7.19425 20.2752C5.77971 20.2752 4.55161 20.0562 3.50994 19.6183C2.4742 19.1803 1.66335 18.5411 1.07741 17.7006C0.497396 16.8602 0.183712 15.8363 0.136364 14.6289H3.37678C3.42412 15.2622 3.61944 15.7889 3.96271 16.2092C4.30599 16.6294 4.75284 16.9431 5.30327 17.1502C5.85961 17.3574 6.48106 17.4609 7.16761 17.4609C7.88376 17.4609 8.51113 17.3544 9.04972 17.1413C9.59422 16.9223 10.0204 16.6205 10.3281 16.2358C10.6359 15.8452 10.7927 15.3894 10.7987 14.8686C10.7927 14.3951 10.6536 14.0045 10.3814 13.6967C10.1091 13.383 9.72739 13.1226 9.23615 12.9155C8.75083 12.7024 8.18265 12.513 7.53161 12.3473L5.46307 11.8146C3.96567 11.4299 2.78196 10.8469 1.91193 10.0657C1.04782 9.27853 0.615767 8.2339 0.615767 6.93182C0.615767 5.86056 0.905777 4.92247 1.4858 4.11754C2.07173 3.31262 2.86778 2.68821 3.87393 2.24432C4.88009 1.79451 6.01941 1.5696 7.2919 1.5696C8.58215 1.5696 9.7126 1.79451 10.6832 2.24432C11.6598 2.68821 12.4263 3.3067 12.9826 4.09979C13.5389 4.88695 13.826 5.79249 13.8438 6.81641H10.6744ZM22.8348 20.2663C21.4735 20.2663 20.3046 19.9674 19.328 19.3697C18.3574 18.7719 17.6087 17.9463 17.0819 16.8928C16.5611 15.8333 16.3007 14.6141 16.3007 13.2351C16.3007 11.8501 16.567 10.628 17.0997 9.56854C17.6324 8.5032 18.384 7.6746 19.3547 7.08274C20.3312 6.48497 21.4854 6.18608 22.817 6.18608C23.9238 6.18608 24.9033 6.39027 25.7556 6.79865C26.6138 7.20111 27.2974 7.77225 27.8064 8.51207C28.3154 9.24598 28.6054 10.1042 28.6764 11.0866H25.6047C25.4804 10.4297 25.1845 9.88222 24.7169 9.44425C24.2552 9.00035 23.6367 8.77841 22.8614 8.77841C22.2045 8.77841 21.6274 8.95597 21.1302 9.31108C20.6331 9.66027 20.2454 10.1634 19.9672 10.8203C19.695 11.4773 19.5589 12.2644 19.5589 13.1818C19.5589 14.111 19.695 14.91 19.9672 15.5788C20.2395 16.2417 20.6212 16.7537 21.1125 17.1147C21.6096 17.4698 22.1926 17.6474 22.8614 17.6474C23.3349 17.6474 23.7581 17.5586 24.1309 17.381C24.5097 17.1976 24.8264 16.9342 25.0809 16.5909C25.3354 16.2476 25.51 15.8304 25.6047 15.3391H28.6764C28.5995 16.3039 28.3154 17.1591 27.8241 17.9048C27.3329 18.6446 26.6641 19.2247 25.8177 19.6449C24.9714 20.0592 23.9771 20.2663 22.8348 20.2663ZM31.3153 20V6.36364H34.4315V8.63636H34.5735C34.8221 7.8492 35.2482 7.24254 35.8519 6.81641C36.4615 6.38435 37.157 6.16832 37.9382 6.16832C38.1158 6.16832 38.314 6.1772 38.533 6.19496C38.7579 6.20679 38.9444 6.22751 39.0923 6.2571V9.21342C38.9562 9.16607 38.7402 9.12464 38.4442 9.08913C38.1542 9.0477 37.8731 9.02699 37.6009 9.02699C37.0149 9.02699 36.4882 9.15424 36.0206 9.40874C35.5589 9.65731 35.195 10.0036 34.9286 10.4474C34.6623 10.8913 34.5291 11.4033 34.5291 11.9833V20H31.3153ZM41.2275 20V6.36364H44.4412V20H41.2275ZM42.8432 4.42827C42.3342 4.42827 41.8962 4.25959 41.5293 3.92223C41.1623 3.57895 40.9789 3.16761 40.9789 2.68821C40.9789 2.20289 41.1623 1.79155 41.5293 1.45419C41.8962 1.11091 42.3342 0.939275 42.8432 0.939275C43.3581 0.939275 43.7961 1.11091 44.1571 1.45419C44.5241 1.79155 44.7076 2.20289 44.7076 2.68821C44.7076 3.16761 44.5241 3.57895 44.1571 3.92223C43.7961 4.25959 43.3581 4.42827 42.8432 4.42827ZM47.8881 20V1.81818H51.1018V8.61861H51.235C51.4007 8.28717 51.6345 7.93501 51.9363 7.56214C52.2382 7.18336 52.6466 6.86079 53.1615 6.59446C53.6764 6.32221 54.3334 6.18608 55.1324 6.18608C56.1859 6.18608 57.1358 6.45537 57.9822 6.99396C58.8344 7.52663 59.5091 8.31676 60.0063 9.36435C60.5094 10.406 60.7609 11.6844 60.7609 13.1996C60.7609 14.697 60.5153 15.9695 60.0241 17.017C59.5328 18.0646 58.864 18.8636 58.0177 19.4141C57.1713 19.9645 56.2125 20.2397 55.1412 20.2397C54.36 20.2397 53.7119 20.1095 53.197 19.8491C52.6821 19.5887 52.2678 19.275 51.9541 18.908C51.6463 18.5352 51.4066 18.183 51.235 17.8516H51.0486V20H47.8881ZM51.0397 13.1818C51.0397 14.0637 51.164 14.8361 51.4126 15.4989C51.6671 16.1618 52.031 16.6797 52.5045 17.0526C52.9839 17.4195 53.564 17.603 54.2446 17.603C54.9548 17.603 55.5496 17.4136 56.029 17.0348C56.5084 16.6501 56.8695 16.1263 57.1121 15.4634C57.3607 14.7946 57.485 14.0341 57.485 13.1818C57.485 12.3355 57.3637 11.5838 57.121 10.9268C56.8783 10.2699 56.5173 9.75497 56.0379 9.3821C55.5585 9.00923 54.9607 8.8228 54.2446 8.8228C53.558 8.8228 52.9751 9.00331 52.4956 9.36435C52.0162 9.72538 51.6523 10.2314 51.4037 10.8825C51.161 11.5335 51.0397 12.3 51.0397 13.1818ZM69.53 20.2663C68.1628 20.2663 66.9821 19.9822 65.9877 19.4141C64.9993 18.84 64.2388 18.0291 63.7061 16.9815C63.1735 15.928 62.9071 14.6881 62.9071 13.2617C62.9071 11.859 63.1735 10.628 63.7061 9.56854C64.2447 8.5032 64.9964 7.6746 65.9611 7.08274C66.9258 6.48497 68.0592 6.18608 69.3613 6.18608C70.2018 6.18608 70.9949 6.32221 71.7406 6.59446C72.4922 6.86079 73.1551 7.27509 73.7292 7.83736C74.3092 8.39962 74.765 9.11577 75.0964 9.9858C75.4279 10.8499 75.5936 11.8797 75.5936 13.0753V14.0607H64.4164V11.8945H72.513C72.507 11.279 72.3739 10.7315 72.1135 10.2521C71.853 9.76681 71.4891 9.38506 71.0215 9.10689C70.5598 8.82872 70.0212 8.68963 69.4057 8.68963C68.7488 8.68963 68.1717 8.84943 67.6745 9.16903C67.1774 9.48272 66.7897 9.89702 66.5115 10.4119C66.2393 10.9209 66.1002 11.4802 66.0943 12.0898V13.9808C66.0943 14.7739 66.2393 15.4545 66.5293 16.0227C66.8193 16.585 67.2247 17.017 67.7456 17.3189C68.2664 17.6148 68.876 17.7628 69.5744 17.7628C70.042 17.7628 70.4651 17.6977 70.8439 17.5675C71.2227 17.4313 71.5512 17.2331 71.8294 16.9727C72.1075 16.7122 72.3176 16.3897 72.4597 16.005L75.4604 16.3423C75.271 17.1354 74.91 17.8279 74.3773 18.4197C73.8506 19.0057 73.1758 19.4614 72.3532 19.7869C71.5305 20.1065 70.5894 20.2663 69.53 20.2663Z" fill="white"/>
<path d="M80.2922 20.1953C79.7536 20.1953 79.2919 20.0059 78.9072 19.6271C78.5225 19.2483 78.3331 18.7867 78.339 18.2422C78.3331 17.7095 78.5225 17.2538 78.9072 16.875C79.2919 16.4962 79.7536 16.3068 80.2922 16.3068C80.813 16.3068 81.2658 16.4962 81.6505 16.875C82.0411 17.2538 82.2394 17.7095 82.2453 18.2422C82.2394 18.6032 82.1447 18.9317 81.9612 19.2276C81.7836 19.5236 81.5469 19.7603 81.251 19.9379C80.961 20.1095 80.6414 20.1953 80.2922 20.1953ZM85.5634 20V6.36364H88.7772V20H85.5634ZM87.1792 4.42827C86.6702 4.42827 86.2322 4.25959 85.8652 3.92223C85.4983 3.57895 85.3148 3.16761 85.3148 2.68821C85.3148 2.20289 85.4983 1.79155 85.8652 1.45419C86.2322 1.11091 86.6702 0.939275 87.1792 0.939275C87.6941 0.939275 88.132 1.11091 88.4931 1.45419C88.86 1.79155 89.0435 2.20289 89.0435 2.68821C89.0435 3.16761 88.86 3.57895 88.4931 3.92223C88.132 4.25959 87.6941 4.42827 87.1792 4.42827ZM98.0301 20.2663C96.6984 20.2663 95.5443 19.9734 94.5677 19.3874C93.5912 18.8015 92.8336 17.9818 92.295 16.9283C91.7623 15.8748 91.496 14.6437 91.496 13.2351C91.496 11.8265 91.7623 10.5924 92.295 9.53303C92.8336 8.4736 93.5912 7.65092 94.5677 7.06499C95.5443 6.47905 96.6984 6.18608 98.0301 6.18608C99.3618 6.18608 100.516 6.47905 101.492 7.06499C102.469 7.65092 103.224 8.4736 103.756 9.53303C104.295 10.5924 104.564 11.8265 104.564 13.2351C104.564 14.6437 104.295 15.8748 103.756 16.9283C103.224 17.9818 102.469 18.8015 101.492 19.3874C100.516 19.9734 99.3618 20.2663 98.0301 20.2663ZM98.0479 17.6918C98.7699 17.6918 99.3736 17.4935 99.8589 17.0969C100.344 16.6945 100.705 16.1559 100.942 15.4812C101.185 14.8065 101.306 14.0548 101.306 13.2262C101.306 12.3917 101.185 11.6371 100.942 10.9624C100.705 10.2817 100.344 9.74018 99.8589 9.33771C99.3736 8.93525 98.7699 8.73402 98.0479 8.73402C97.308 8.73402 96.6925 8.93525 96.2013 9.33771C95.7159 9.74018 95.3519 10.2817 95.1093 10.9624C94.8725 11.6371 94.7542 12.3917 94.7542 13.2262C94.7542 14.0548 94.8725 14.8065 95.1093 15.4812C95.3519 16.1559 95.7159 16.6945 96.2013 17.0969C96.6925 17.4935 97.308 17.6918 98.0479 17.6918Z" fill="#4D40E3"/>
</svg>
