<svg width="19" height="19" viewBox="0 0 19 19" fill="none" xmlns="http://www.w3.org/2000/svg">
<path d="M18.7605 17.6391L13.3091 12.1838C14.3839 10.895 15.0302 9.24788 15.0302 7.44892C15.0302 3.34481 11.6621 0.00778961 7.51901 0.00778961C3.37596 0.00778961 0 3.34871 0 7.45281C0 11.5569 3.36817 14.8939 7.51122 14.8939C9.27124 14.8939 10.8911 14.2904 12.176 13.2819L17.6469 18.7527C17.9662 19.072 18.4412 19.072 18.7605 18.7527C19.0798 18.4334 19.0798 17.9584 18.7605 17.6391ZM1.59648 7.45281C1.59648 4.22871 4.25207 1.60816 7.51122 1.60816C10.7704 1.60816 13.426 4.22871 13.426 7.45281C13.426 10.6769 10.7704 13.2975 7.51122 13.2975C4.25207 13.2975 1.59648 10.673 1.59648 7.45281Z" fill="white"/>
</svg>
