<svg width="45" height="45" viewBox="0 0 45 45" fill="none" xmlns="http://www.w3.org/2000/svg">
<path d="M8.76 9.75L8.13525 6H5.89275C5.55825 4.71 4.39425 3.75 3 3.75C1.3455 3.75 0 5.0955 0 6.75C0 8.4045 1.3455 9.75 3 9.75C4.39425 9.75 5.55825 8.79 5.8935 7.5H6.864L7.239 9.75H7.2105L11.0887 29.262C9.24 29.403 7.70025 30.8265 7.51875 32.6175C7.41225 33.6713 7.75875 34.7265 8.46975 35.511C9.1815 36.2977 10.1955 36.75 11.25 36.75H12.75C12.75 39.2318 14.7682 41.25 17.25 41.25C19.7318 41.25 21.75 39.2318 21.75 36.75H30C30 39.2318 32.0182 41.25 34.5 41.25C36.9818 41.25 39 39.2318 39 36.75H42C42.4147 36.75 42.75 36.4147 42.75 36C42.75 35.5853 42.4147 35.25 42 35.25H38.7375C38.118 33.5047 36.4552 32.25 34.5 32.25C32.5448 32.25 30.882 33.5047 30.2625 35.25H21.4875C20.868 33.5047 19.2052 32.25 17.25 32.25C15.2948 32.25 13.632 33.5047 13.0125 35.25H11.25C10.6185 35.25 10.011 34.9785 9.582 34.5052C9.14925 34.026 8.946 33.4095 9.01125 32.7683C9.12525 31.6365 10.1707 30.7507 11.391 30.7507H11.9843C11.9948 30.7507 12.003 30.7507 12.0135 30.7507H41.259C43.3223 30.75 45 29.0723 45 27.0098V9.75H8.76ZM3 8.25C2.17275 8.25 1.5 7.57725 1.5 6.75C1.5 5.92275 2.17275 5.25 3 5.25C3.82725 5.25 4.5 5.92275 4.5 6.75C4.5 7.57725 3.82725 8.25 3 8.25ZM34.5 33.75C36.1545 33.75 37.5 35.0955 37.5 36.75C37.5 38.4045 36.1545 39.75 34.5 39.75C32.8455 39.75 31.5 38.4045 31.5 36.75C31.5 35.0955 32.8455 33.75 34.5 33.75ZM17.25 33.75C18.9045 33.75 20.25 35.0955 20.25 36.75C20.25 38.4045 18.9045 39.75 17.25 39.75C15.5955 39.75 14.25 38.4045 14.25 36.75C14.25 35.0955 15.5955 33.75 17.25 33.75ZM43.5 27.0098C43.5 28.245 42.495 29.25 41.2598 29.25H12.6157L9.03825 11.25H43.5V27.0098Z" fill="white"/>
</svg>
