<svg width="71" height="21" viewBox="0 0 71 21" fill="none" xmlns="http://www.w3.org/2000/svg">
<path d="M0.9375 16V-4.76837e-07H2.875V14.2812H10.3125V16H0.9375ZM17.9375 16.25C16.8542 16.25 15.9036 15.9922 15.0859 15.4766C14.2734 14.9609 13.638 14.2396 13.1797 13.3125C12.7266 12.3854 12.5 11.3021 12.5 10.0625C12.5 8.8125 12.7266 7.72135 13.1797 6.78906C13.638 5.85677 14.2734 5.13281 15.0859 4.61719C15.9036 4.10156 16.8542 3.84375 17.9375 3.84375C19.0208 3.84375 19.9688 4.10156 20.7813 4.61719C21.599 5.13281 22.2344 5.85677 22.6875 6.78906C23.1458 7.72135 23.375 8.8125 23.375 10.0625C23.375 11.3021 23.1458 12.3854 22.6875 13.3125C22.2344 14.2396 21.599 14.9609 20.7813 15.4766C19.9688 15.9922 19.0208 16.25 17.9375 16.25ZM17.9375 14.5938C18.7604 14.5938 19.4375 14.3828 19.9688 13.9609C20.5 13.5391 20.8932 12.9844 21.1484 12.2969C21.4036 11.6094 21.5313 10.8646 21.5313 10.0625C21.5313 9.26042 21.4036 8.51302 21.1484 7.82031C20.8932 7.1276 20.5 6.56771 19.9688 6.14062C19.4375 5.71354 18.7604 5.5 17.9375 5.5C17.1146 5.5 16.4375 5.71354 15.9063 6.14062C15.375 6.56771 14.9818 7.1276 14.7266 7.82031C14.4714 8.51302 14.3438 9.26042 14.3438 10.0625C14.3438 10.8646 14.4714 11.6094 14.7266 12.2969C14.9818 12.9844 15.375 13.5391 15.9063 13.9609C16.4375 14.3828 17.1146 14.5938 17.9375 14.5938ZM31.0332 20.75C30.1426 20.75 29.377 20.6354 28.7363 20.4063C28.0957 20.1823 27.5618 19.8854 27.1348 19.5156C26.7129 19.151 26.377 18.7604 26.127 18.3438L27.5957 17.3125C27.7624 17.5313 27.9733 17.7813 28.2285 18.0625C28.4837 18.349 28.8327 18.5964 29.2754 18.8047C29.7233 19.0182 30.3092 19.125 31.0332 19.125C32.002 19.125 32.8014 18.8906 33.4316 18.4219C34.0618 17.9531 34.377 17.2187 34.377 16.2187V13.7812H34.2207C34.0853 14 33.8926 14.2708 33.6426 14.5938C33.3978 14.9115 33.0436 15.1953 32.5801 15.4453C32.1217 15.6901 31.502 15.8125 30.7207 15.8125C29.752 15.8125 28.8822 15.5833 28.1113 15.125C27.3457 14.6667 26.7389 14 26.291 13.125C25.8483 12.25 25.627 11.1875 25.627 9.9375C25.627 8.70833 25.8431 7.63802 26.2754 6.72656C26.7077 5.8099 27.3092 5.10156 28.0801 4.60156C28.8509 4.09635 29.7415 3.84375 30.752 3.84375C31.5332 3.84375 32.153 3.97396 32.6113 4.23438C33.0749 4.48958 33.429 4.78125 33.6738 5.10937C33.9238 5.43229 34.1165 5.69792 34.252 5.90625H34.4395V4H36.2207V16.3438C36.2207 17.375 35.9863 18.2135 35.5176 18.8594C35.054 19.5104 34.429 19.987 33.6426 20.2891C32.8613 20.5964 31.9915 20.75 31.0332 20.75ZM30.9707 14.1562C31.7103 14.1562 32.3353 13.987 32.8457 13.6484C33.3561 13.3099 33.7441 12.8229 34.0098 12.1875C34.2754 11.5521 34.4082 10.7917 34.4082 9.90625C34.4082 9.04167 34.278 8.27865 34.0176 7.61719C33.7572 6.95573 33.3717 6.4375 32.8613 6.0625C32.3509 5.6875 31.7207 5.5 30.9707 5.5C30.1895 5.5 29.5384 5.69792 29.0176 6.09375C28.502 6.48958 28.1139 7.02083 27.8535 7.6875C27.5983 8.35417 27.4707 9.09375 27.4707 9.90625C27.4707 10.7396 27.6009 11.4766 27.8613 12.1172C28.127 12.7526 28.5176 13.2526 29.0332 13.6172C29.554 13.9766 30.1999 14.1562 30.9707 14.1562ZM44.4707 16.25C43.3874 16.25 42.4368 15.9922 41.6191 15.4766C40.8066 14.9609 40.1712 14.2396 39.7129 13.3125C39.2598 12.3854 39.0332 11.3021 39.0332 10.0625C39.0332 8.8125 39.2598 7.72135 39.7129 6.78906C40.1712 5.85677 40.8066 5.13281 41.6191 4.61719C42.4368 4.10156 43.3874 3.84375 44.4707 3.84375C45.554 3.84375 46.502 4.10156 47.3145 4.61719C48.1322 5.13281 48.7676 5.85677 49.2207 6.78906C49.679 7.72135 49.9082 8.8125 49.9082 10.0625C49.9082 11.3021 49.679 12.3854 49.2207 13.3125C48.7676 14.2396 48.1322 14.9609 47.3145 15.4766C46.502 15.9922 45.554 16.25 44.4707 16.25ZM44.4707 14.5938C45.2936 14.5938 45.9707 14.3828 46.502 13.9609C47.0332 13.5391 47.4264 12.9844 47.6816 12.2969C47.9368 11.6094 48.0645 10.8646 48.0645 10.0625C48.0645 9.26042 47.9368 8.51302 47.6816 7.82031C47.4264 7.1276 47.0332 6.56771 46.502 6.14062C45.9707 5.71354 45.2936 5.5 44.4707 5.5C43.6478 5.5 42.9707 5.71354 42.4395 6.14062C41.9082 6.56771 41.515 7.1276 41.2598 7.82031C41.0046 8.51302 40.877 9.26042 40.877 10.0625C40.877 10.8646 41.0046 11.6094 41.2598 12.2969C41.515 12.9844 41.9082 13.5391 42.4395 13.9609C42.9707 14.3828 43.6478 14.5938 44.4707 14.5938ZM60.2852 11.0937V4H62.1289V16H60.2852V13.9687H60.1602C59.8789 14.5781 59.4414 15.0964 58.8477 15.5234C58.2539 15.9453 57.5039 16.1563 56.5977 16.1563C55.8477 16.1563 55.181 15.9922 54.5977 15.6641C54.0143 15.3307 53.556 14.8307 53.2227 14.1641C52.8893 13.4922 52.7227 12.6458 52.7227 11.625V4H54.5664V11.5C54.5664 12.375 54.8112 13.0729 55.3008 13.5938C55.7956 14.1146 56.4258 14.375 57.1914 14.375C57.6497 14.375 58.1159 14.2578 58.5898 14.0234C59.069 13.7891 59.4701 13.4297 59.793 12.9453C60.1211 12.4609 60.2852 11.8437 60.2852 11.0937ZM70.7246 4V5.5625H64.5059V4H70.7246ZM66.3184 1.125H68.1621V12.5625C68.1621 13.0833 68.2376 13.474 68.3887 13.7344C68.5449 13.9896 68.7428 14.1615 68.9824 14.25C69.2272 14.3333 69.485 14.375 69.7559 14.375C69.959 14.375 70.1257 14.3646 70.2559 14.3437C70.3861 14.3177 70.4902 14.2969 70.5684 14.2812L70.9434 15.9375C70.8184 15.9844 70.6439 16.0313 70.4199 16.0781C70.196 16.1302 69.9121 16.1563 69.5684 16.1563C69.0475 16.1563 68.5371 16.0443 68.0371 15.8203C67.5423 15.5964 67.1309 15.2552 66.8027 14.7969C66.4798 14.3385 66.3184 13.7604 66.3184 13.0625V1.125Z" fill="white"/>
</svg>
